<svg width="120" height="28" viewBox="0 0 120 28" fill="none" xmlns="http://www.w3.org/2000/svg">
<path d="M6.03085 26.6986V26.7253C6.45421 26.7431 6.87756 26.752 7.30091 26.7787C8.84379 26.8498 10.3867 26.7698 11.9201 26.6363C12.6916 26.5651 13.4536 26.5473 14.2251 26.5118C15.1188 26.4851 16.0031 26.6007 16.8875 26.663C18.1481 26.752 19.4088 26.8587 20.6694 26.8409C21.328 26.832 21.8454 26.5829 22.2593 26.1203C22.7674 25.5331 22.5886 24.7769 21.8454 24.4834C21.5632 24.3677 21.2527 24.2876 20.9422 24.2609C20.3025 24.1898 19.6346 24.1631 18.9948 24.1097C17.4708 24.0029 15.9373 23.8784 14.4132 23.7894C13.9805 23.7627 13.5477 23.7449 13.1149 23.7894C11.4215 23.9851 9.72813 24.1008 8.02531 24.1097C6.3319 24.1186 4.6385 24.0296 2.9545 23.8784C2.38062 23.825 1.81615 23.9051 1.29872 24.1453C0.65899 24.4389 0.198007 24.8837 0.0286665 25.5598C-0.0654116 25.9691 0.113337 26.316 0.517873 26.4673C0.706029 26.5384 0.913001 26.5829 1.11057 26.5918C1.83497 26.6363 2.54996 26.6808 3.26496 26.6808C4.18692 26.6986 5.1183 26.6808 6.03085 26.6808V26.6986Z" fill="white"/>
<path d="M53.4653 27.2232C53.2301 27.1965 53.0043 27.161 52.7691 27.1343C50.9064 26.8318 49.5328 25.9154 48.752 24.2607C48.6203 23.976 48.5262 23.6735 48.5168 23.3532C48.4791 22.4013 49.2788 21.823 50.2196 21.9476C50.69 22.0188 51.1416 22.17 51.5555 22.3835C52.1482 22.686 52.7597 22.8817 53.4277 22.9885C54.2461 23.1308 55.0364 23.3888 55.7984 23.7091C56.3441 23.9404 56.9086 24.0472 57.5012 23.9582C58.6584 23.7714 59.3922 23.1308 59.7215 22.0632C59.9002 21.4761 59.8908 20.8622 59.8532 20.2573C59.8532 20.1416 59.8532 20.017 59.825 19.9014C59.8062 19.7946 59.7968 19.679 59.7497 19.5722C59.6462 19.3142 59.4487 19.1986 59.1476 19.2342C59.0253 19.243 58.8936 19.2786 58.7807 19.3231C58.2727 19.5455 57.7458 19.759 57.2472 20.0081C56.6169 20.3284 55.9584 20.5419 55.2434 20.5953C53.5876 20.7377 51.8001 20.0704 50.8687 18.3623C50.7088 18.0865 50.6053 17.7751 50.4642 17.4726C50.3137 17.1346 50.182 16.7876 49.9844 16.4673C49.8245 16.2093 49.6269 15.9602 49.3917 15.7556C49.053 15.462 48.8931 15.0973 48.8837 14.6702C48.8649 14.0297 48.8555 13.3891 48.8555 12.7486C48.8555 12.108 48.8555 11.4853 48.8272 10.8536C48.7708 9.93728 49.0342 9.10101 49.4011 8.27363C49.9656 7.03702 50.9252 6.26302 52.2799 5.88936C53.8698 5.45344 55.4692 5.40895 57.0497 5.96054C57.6235 6.16516 58.1598 6.44095 58.6584 6.77012C58.8372 6.88578 59.0159 6.98364 59.2041 7.0815C59.4769 7.21495 59.7309 7.17936 59.9661 6.99253C60.079 6.90357 60.1825 6.8146 60.286 6.71674C60.38 6.62778 60.4835 6.52102 60.587 6.42316C60.9539 6.09398 61.3867 5.91605 61.8947 5.89826C62.5626 5.88937 63.2306 5.89826 63.8986 5.98723C65.1404 6.14736 65.9777 7.01922 66.0247 8.20246C66.0341 8.55832 65.9683 8.90529 65.8178 9.23446C65.385 10.1864 65.2251 11.1828 65.2439 12.2148C65.2627 12.971 65.3756 13.7183 65.4885 14.4567C65.5449 14.8393 65.5731 15.2218 65.6108 15.6044C65.7049 16.3606 65.7895 17.1168 65.9024 17.8641C66.0812 19.0473 66.1753 20.2306 66.0624 21.4316C66.0059 22.0277 65.9589 22.6326 65.6672 23.1842C64.8393 24.7767 63.6257 25.9955 61.9135 26.7695C61.6407 26.8852 61.3679 26.9474 61.0762 26.9563H60.8692C60.4459 26.983 60.0602 26.903 59.665 26.7428C58.696 26.3603 57.6988 26.3425 56.711 26.645C55.8361 26.903 54.9517 27.1076 54.0298 27.161C54.0015 27.161 53.9827 27.1787 53.9639 27.1876H53.4559V27.2143H53.4653V27.2232ZM59.9379 13.4069C59.9379 12.7931 59.8438 12.1881 59.6274 11.6187C59.3734 10.9515 58.9877 10.3643 58.3574 9.95508C57.8493 9.61701 57.2755 9.46577 56.6545 9.55473C56.1089 9.6437 55.6573 9.8928 55.2622 10.2487C54.4061 11.0227 54.0956 12.0102 54.1332 13.0778C54.1615 13.6916 54.2932 14.3144 54.4437 14.9193C54.6319 15.6755 55.1211 16.2093 55.9207 16.4851C57.426 16.9922 59.1006 16.2627 59.6839 14.866C59.8814 14.4033 59.9567 13.914 59.9473 13.4069H59.9379Z" fill="white"/>
<path d="M117.984 16.3162C117.984 16.3162 117.946 16.4051 117.937 16.4496C117.852 17.2325 117.58 17.962 117.203 18.6559C116.771 19.4477 116.046 19.9281 115.162 20.1595C114.541 20.3107 113.92 20.4174 113.299 20.542C112.782 20.6399 112.283 20.7911 111.822 21.0402C111.568 21.1826 111.286 21.2359 110.994 21.2626C110.373 21.316 109.743 21.3605 109.122 21.4139C108.717 21.4405 108.332 21.4939 107.937 21.5028C107.447 21.5295 106.949 21.4494 106.488 21.2893C105.904 21.0847 105.312 20.9601 104.7 20.8356C103.844 20.6577 103.092 20.3018 102.452 19.7413C102.123 19.4477 101.859 19.1097 101.746 18.6737C101.605 18.131 101.803 17.6239 102.273 17.2948C102.536 17.1168 102.828 17.0101 103.129 16.9478C103.807 16.8144 104.484 16.761 105.171 16.7432C105.443 16.7432 105.726 16.7254 106.008 16.7165C106.215 16.7165 106.403 16.7343 106.572 16.8322C106.864 17.0101 107.146 17.1969 107.429 17.3837C107.541 17.4638 107.645 17.5617 107.748 17.6506C108.614 18.389 109.621 18.6115 110.74 18.4068C110.985 18.3624 111.22 18.309 111.446 18.2289C111.803 18.1133 112.104 17.9086 112.321 17.6062C112.716 17.0012 112.462 16.3162 111.747 16.0848C111.032 15.8535 110.336 15.5866 109.658 15.2753C109.216 15.0706 108.764 14.8571 108.322 14.6436C108.031 14.5013 107.701 14.4123 107.372 14.3856C106.779 14.3589 106.196 14.3411 105.594 14.3411C105.048 14.3411 104.512 14.3411 104.004 14.1187C103.045 13.7184 102.395 13.0422 101.981 12.1437C101.304 10.658 101.52 8.75411 103.12 7.36625C104.155 6.4677 105.359 5.90722 106.751 5.7204C107.372 5.64033 107.984 5.59584 108.605 5.58695C109.536 5.56026 110.477 5.55136 111.399 5.58695C112.725 5.63143 113.976 5.92502 115.115 6.60115C115.303 6.70791 115.482 6.83246 115.66 6.95701C116.15 7.29508 116.432 7.7577 116.554 8.30928C116.676 8.83418 116.479 9.21673 115.961 9.42135C115.689 9.537 115.388 9.59928 115.087 9.67935C114.748 9.76831 114.39 9.8128 114.042 9.89286C113.412 10.0441 112.8 9.98183 112.189 9.76831C111.907 9.67045 111.624 9.5459 111.352 9.43025C110.75 9.17225 110.138 8.93204 109.498 8.76301C108.689 8.5317 108.002 8.80749 107.447 9.35018C107.024 9.75052 107.09 10.3021 107.57 10.6402C107.786 10.7914 108.031 10.8982 108.285 10.996C109.31 11.3786 110.354 11.6366 111.455 11.7433C111.662 11.7611 111.86 11.77 112.067 11.77C112.942 11.77 113.751 11.9835 114.484 12.4462C114.908 12.7042 115.35 12.9088 115.801 13.1223C116.215 13.318 116.611 13.5315 116.959 13.8251C117.486 14.2877 117.852 14.8304 117.909 15.5244C117.909 15.5777 117.937 15.6133 117.956 15.6578V16.3339H117.975H117.965L117.984 16.3162Z" fill="white"/>
<path d="M22.6735 6.41441C22.6171 6.4322 22.5701 6.45889 22.4854 6.48558C22.4948 6.72579 22.5136 6.96599 22.5136 7.2151C22.5889 8.7364 22.6924 10.2755 22.6171 11.7968C22.5983 12.2683 22.5324 12.7309 22.4666 13.2025C22.3443 14.012 22.3443 14.8127 22.4007 15.6223C22.4666 16.512 22.5512 17.3927 22.6265 18.2735C22.6641 18.7628 22.5889 19.2432 22.4666 19.7236C22.1937 20.7111 21.3565 21.325 20.2557 21.3606C19.7948 21.3695 19.3432 21.2805 18.901 21.2182C18.2801 21.1293 17.6592 21.0492 17.0477 20.9335C16.1257 20.7556 15.3825 20.2841 14.8086 19.5724C14.1689 18.7806 13.6044 17.9265 13.087 17.0546C12.3438 15.7824 11.4594 14.5992 10.4246 13.5227C10.0859 13.1758 9.82247 12.7665 9.54964 12.3751C9.258 11.948 8.98517 11.5032 8.70294 11.0673C8.46774 10.7114 8.08202 10.5869 7.75275 10.7915C7.56459 10.8983 7.47051 11.0673 7.43288 11.263C7.38584 11.521 7.34821 11.7701 7.33881 12.0192C7.27295 13.2025 7.2165 14.3857 7.16946 15.5689C7.16946 15.7558 7.16946 15.9426 7.19769 16.1205C7.29177 16.7967 7.2071 17.4461 6.93427 18.0777C6.93427 18.0777 6.93427 18.0955 6.92486 18.1044C6.65203 18.6026 6.68026 19.092 6.96249 19.5635C6.99072 19.608 7.00953 19.6524 7.01894 19.6969C7.24473 20.2841 7.01894 20.7645 6.40743 20.9691C5.82415 21.1737 5.23145 21.2894 4.60113 21.325C3.80147 21.3784 3.03003 21.236 2.30562 20.9157C1.75997 20.6755 1.34603 20.3197 1.1955 19.7414C1.14846 19.5635 1.12024 19.3766 1.12024 19.1987C1.12024 18.0422 1.04498 16.8767 0.969713 15.7291C0.913266 14.9729 1.14846 14.3056 1.69411 13.754C1.92931 13.5138 2.14569 13.2558 2.35266 12.9978C2.46556 12.8466 2.54082 12.6776 2.59727 12.4996C2.72897 12.1349 2.67253 11.7879 2.3997 11.4854C1.71293 10.6936 1.27076 9.79509 1.0732 8.79868C0.922674 8.04247 0.913266 7.29516 0.94149 6.53006C0.979121 5.63151 0.997937 4.74186 1.03557 3.84331C1.05438 3.21166 1.08261 2.5889 1.11083 1.94835C1.11083 1.73484 1.16728 1.52132 1.22372 1.3078C1.35543 0.880771 1.73175 0.631668 2.18332 0.685047C2.99239 0.774012 3.79206 0.667254 4.57291 0.453737C4.84573 0.382565 5.12797 0.2936 5.39139 0.213531C5.66421 0.133462 5.94645 0.0889798 6.23809 0.115669C6.75552 0.160152 7.15065 0.400358 7.43288 0.800702C7.56459 0.987529 7.65867 1.19215 7.75275 1.39677C7.86564 1.63698 7.95031 1.88608 8.0538 2.14408C8.27959 2.67787 8.66531 3.06932 9.22037 3.28283C9.67194 3.46076 10.0294 3.74545 10.3023 4.11911C11.5253 5.79165 12.7483 7.4642 13.9807 9.12785C14.3382 9.60826 14.7239 10.062 15.1567 10.4712C15.2508 10.5602 15.3825 10.6492 15.5048 10.7114C15.6741 10.8004 15.8152 10.747 15.9093 10.578C15.9658 10.489 15.994 10.3823 16.0034 10.2844C16.0693 9.55488 16.1257 8.83426 16.1727 8.10475C16.1916 7.79337 16.1727 7.48199 16.1445 7.17061C16.041 5.934 16.0598 4.70628 16.1445 3.47856C16.1727 2.94476 16.2198 2.40208 16.2574 1.87718C16.2574 1.76153 16.2856 1.65477 16.3139 1.53911C16.455 0.93415 16.8783 0.560496 17.5275 0.47153C17.7156 0.444841 17.9132 0.427048 18.1108 0.435944C18.7599 0.453737 19.4184 0.444841 20.0676 0.516013C21.2624 0.631668 22.0903 1.37008 22.2596 2.48214C22.3819 3.22056 22.4478 3.95897 22.5324 4.69738C22.5889 5.22227 22.6265 5.72938 22.6641 6.25427V6.4322V6.40551L22.6735 6.41441Z" fill="white"/>
<path d="M26.8976 17.0901V15.9336C26.907 15.1774 27.1704 14.519 27.7443 13.9941C28.1865 13.5938 28.7227 13.3714 29.3248 13.2913C29.6917 13.2379 30.0492 13.2735 30.4161 13.318C31.2158 13.407 32.0061 13.3803 32.7587 13.06C33.0409 12.9354 33.3326 12.802 33.5678 12.6152C34.0664 12.2326 34.6308 12.0636 35.2518 12.0102C36.0138 11.939 36.7664 11.8501 37.5096 11.6721C37.8953 11.5832 38.2528 11.4408 38.5351 11.1739C39.0995 10.6312 39.1936 9.75049 38.7797 9.10994C38.5539 8.77187 38.2528 8.61174 37.8201 8.64732C36.8605 8.73629 35.9197 8.81636 34.9883 9.06546C34.0664 9.32346 33.2855 9.75939 32.6552 10.4444C32.4764 10.6401 32.2601 10.7202 31.9872 10.7024C30.9336 10.6312 29.8893 10.6135 28.845 10.4622C28.4217 10.3999 28.0454 10.2665 27.7537 9.95511C27.2739 9.43022 27.2457 8.57615 27.6879 8.02457C27.829 7.84664 27.9983 7.6865 28.1959 7.56195C29.0614 7.00147 29.9834 6.51216 30.9712 6.17409C32.1848 5.75595 33.4266 5.64919 34.6967 5.8983C35.3741 6.03175 36.0608 6.01395 36.7382 5.92499C37.1521 5.87161 37.5567 5.80933 37.9706 5.75595C38.8926 5.6403 39.7581 5.78264 40.5954 6.1385C41.9125 6.68119 42.9379 7.53526 43.5965 8.75408C44.0481 9.59925 44.1515 10.4711 43.9069 11.3875C43.8129 11.7611 43.7282 12.1348 43.6717 12.5173C43.5777 13.1668 43.6717 13.7984 43.954 14.3945C44.2268 14.9283 44.2362 15.471 44.161 16.0314C44.1045 16.4852 44.0292 16.9389 44.001 17.3926C43.9728 17.8374 44.0575 18.2823 44.161 18.7271C44.2174 18.9495 44.255 19.1897 44.255 19.4121C44.2268 20.0705 43.7 20.6309 42.9756 20.8C42.8156 20.8356 42.6651 20.8622 42.5052 20.8622C41.7055 20.88 40.9153 20.8889 40.1156 20.8978C39.5229 20.8978 39.0243 20.7199 38.6386 20.2751C38.3563 19.937 37.8953 19.848 37.5002 20.1683C37.0581 20.5331 36.5218 20.711 35.9573 20.8C34.866 20.9779 33.7841 21.2181 32.7022 21.4405C31.1405 21.7697 29.6635 21.5206 28.3088 20.7377C27.3962 20.2128 26.9541 19.421 26.8882 18.4335C26.86 17.9976 26.8882 17.5527 26.8882 17.1168H26.8694H26.8976V17.0901ZM34.4615 18.3623C34.866 18.3623 35.2612 18.3445 35.6375 18.1844C36.4936 17.8285 37.3403 17.4816 38.1964 17.1168C38.4692 17.0101 38.7232 16.8855 38.9772 16.761C39.4665 16.503 39.5982 16.0136 39.2689 15.5777C39.1748 15.4443 39.0337 15.3197 38.8926 15.2219C38.6668 15.0706 38.4504 14.9283 38.2717 14.7236C38.0647 14.4923 37.7825 14.3856 37.4626 14.3767C37.3121 14.3767 37.1615 14.3767 37.011 14.3856C36.1267 14.4568 35.2423 14.5368 34.358 14.6169C33.897 14.6525 33.4925 14.8126 33.1162 15.0528C33.0127 15.124 32.8998 15.2219 32.8433 15.3286C32.5611 15.7645 32.4012 16.2538 32.467 16.7698C32.5799 17.6506 33.0785 18.1488 33.9158 18.2734C34.104 18.3 34.2827 18.3267 34.4803 18.3445V18.3623H34.4615Z" fill="white"/>
<path d="M98.7357 13.3983C98.7357 14.715 98.4064 15.9694 97.8419 17.1704C97.5597 17.7754 97.2587 18.3804 96.7789 18.8786C96.2238 19.4657 95.5652 19.875 94.7938 20.133C94.3705 20.2753 93.9377 20.2842 93.4861 20.1863C93.3262 20.1508 93.1568 20.1152 92.9875 20.0974C92.3666 20.0262 91.8492 20.213 91.4352 20.649C90.9931 21.1027 90.4286 21.2895 89.7794 21.2361C89.3937 21.2006 89.008 21.1116 88.6223 21.076C87.9637 21.0137 87.3052 20.9781 86.6466 20.9337C86.1857 20.8981 85.7059 20.8714 85.2731 20.7379C85.0003 20.649 84.7086 20.5422 84.4734 20.391C83.448 19.7682 82.4884 19.0476 81.5382 18.327C81.1901 18.069 81.0114 17.7398 80.9831 17.295C80.9173 16.263 80.6727 15.2755 80.3622 14.288C80.2681 14.0211 80.1929 13.7453 80.0894 13.4962C79.9012 13.0157 79.8636 12.5353 79.9859 12.0371C80.1552 11.272 80.4281 10.5425 80.8702 9.87528C81.0396 9.61728 81.2748 9.43935 81.5758 9.35928C82.3943 9.14576 82.9964 8.65645 83.4386 7.99811C83.6455 7.70453 83.8431 7.40204 84.0407 7.10846C84.5299 6.40563 85.1978 6.09426 86.101 6.21881C87.1358 6.35225 88.1613 6.27219 89.1868 6.07646C89.5348 6.00529 89.8735 6.00529 90.2216 6.04977C91.2753 6.18322 92.3196 6.31667 93.3732 6.45901C94.8503 6.65474 96.0074 7.33977 96.9106 8.43404C97.8796 9.61728 98.4911 10.9429 98.7169 12.4286C98.7451 12.5976 98.7639 12.7666 98.7733 12.9268V13.4072H98.7357V13.3983ZM86.0163 13.7986C85.9975 14.7061 86.1762 15.4267 86.5714 16.1028C87.2205 17.2149 88.4812 17.811 89.8171 17.6153C91.0401 17.4373 92.0844 16.4943 92.2725 15.3466C92.4136 14.5015 92.4889 13.6474 92.3854 12.7844C92.2819 11.8592 91.9621 11.014 91.3317 10.2756C90.5227 9.32369 89.2902 9.08349 88.1425 9.65287C87.1358 10.16 86.5149 10.9607 86.2327 11.9927C86.0539 12.6243 86.0634 13.2737 86.0163 13.7809V13.7986Z" fill="white"/>
<path d="M76.3169 9.39478C76.3169 9.83071 76.3263 10.2755 76.3169 10.7115C76.3075 11.1296 76.2134 11.5566 76.0441 11.957C75.8936 12.3395 75.8747 12.7221 75.9688 13.1135C76.2887 14.3768 76.4016 15.6757 76.411 16.9657C76.411 17.6952 76.4204 18.4247 76.4298 19.1454C76.4298 19.4834 76.3734 19.8126 76.2228 20.124C75.8653 20.809 75.2538 21.156 74.4824 21.2538C73.9932 21.325 73.5228 21.2538 73.043 21.1827C72.836 21.156 72.6385 21.1293 72.4409 21.0848C71.867 20.9514 71.406 20.6489 71.0862 20.1774C70.5593 19.4123 70.2959 18.576 70.2771 17.6596C70.2583 17.117 70.3806 16.601 70.6722 16.1383C71.1238 15.4088 71.1991 14.6348 71.0485 13.8163C70.9545 13.327 70.8227 12.8466 70.7569 12.3573C70.5687 11.1118 70.3994 9.87519 70.2395 8.62078C70.1736 8.12258 70.2677 7.61548 70.437 7.13506C70.7099 6.37886 71.2931 6.0141 72.1022 5.97851C72.8078 5.95182 73.504 5.96072 74.2096 5.97851C74.4259 5.97851 74.6517 6.03189 74.8493 6.09417C75.6584 6.32548 76.1193 6.85927 76.2605 7.64216C76.3075 7.86458 76.3169 8.07809 76.3169 8.3094C76.3263 8.66526 76.3169 9.03892 76.3169 9.39478Z" fill="white"/>
<path d="M6.03106 26.6986C5.1091 26.6986 4.17772 26.7075 3.26517 26.6986C2.54076 26.6897 1.82577 26.6452 1.11078 26.6097C0.903804 26.6008 0.70624 26.5474 0.518084 26.4851C0.10414 26.3339 -0.0746086 25.9869 0.0288774 25.5777C0.18881 24.9015 0.649793 24.4656 1.29893 24.1631C1.82577 23.9229 2.39024 23.8428 2.95471 23.8962C4.64812 24.0475 6.33211 24.1364 8.02552 24.1275C9.72834 24.1186 11.4312 24.003 13.1151 23.8072C13.5385 23.7539 13.9807 23.7717 14.4134 23.8072C15.9375 23.8962 17.471 24.0208 18.995 24.1275C19.6442 24.1809 20.3027 24.2076 20.9425 24.2788C21.2529 24.3144 21.5634 24.3855 21.8456 24.5012C22.5888 24.7948 22.777 25.551 22.2595 26.1381C21.8456 26.6097 21.3188 26.841 20.6696 26.8588C19.3996 26.8854 18.1483 26.7698 16.8877 26.6808C16.0033 26.6185 15.119 26.494 14.2253 26.5296C13.4538 26.5563 12.6824 26.5919 11.9204 26.6541C10.3869 26.7787 8.83459 26.8588 7.30112 26.7965C6.87777 26.7787 6.45442 26.7698 6.03106 26.7431V26.7164V26.6986Z" fill="white"/>
<path d="M73.5228 0.017793C73.7768 0.017793 74.1249 0.0622756 74.473 0.0622756C75.1785 0.0622756 75.696 0.489309 75.8465 1.15655C75.9876 1.82379 75.9124 2.47323 75.6301 3.10489C75.4231 3.56751 75.0374 3.81661 74.5106 3.85219C73.7674 3.90557 73.0242 3.94116 72.2903 3.79881C72.0457 3.75433 71.7917 3.70095 71.5565 3.61199C71.0015 3.41626 70.7004 3.03371 70.6063 2.49992C70.5217 1.95723 70.5781 1.42344 70.8509 0.934135C71.1802 0.346964 71.6882 0.0266896 72.3938 0C72.7419 0 73.09 0 73.5322 0V0.017793H73.5228Z" fill="white"/>
<path d="M117.711 5.48043C118.423 5.48043 119 4.94271 119 4.2794C119 3.61609 118.423 3.07837 117.711 3.07837C116.999 3.07837 116.422 3.61609 116.422 4.2794C116.422 4.94271 116.999 5.48043 117.711 5.48043Z" stroke="white" stroke-width="0.281001" stroke-miterlimit="10"/>
<mask id="path-11-inside-1_4439_193" fill="white">
<path d="M117.627 4.16374C117.711 4.16374 117.768 4.14595 117.796 4.11926C117.824 4.09257 117.852 4.04809 117.852 3.97692C117.852 3.90574 117.834 3.87016 117.796 3.83457C117.758 3.80788 117.702 3.79009 117.627 3.79009H117.457V4.14595H117.627M117.457 4.39505V4.92884H117.071V3.52319H117.664C117.862 3.52319 118.003 3.54988 118.097 3.61216C118.191 3.67443 118.238 3.7723 118.238 3.90574C118.238 3.99471 118.219 4.07478 118.163 4.13705C118.106 4.19933 118.04 4.24381 117.946 4.2705C118.003 4.2794 118.05 4.30609 118.088 4.35057C118.125 4.38616 118.172 4.44843 118.21 4.5285L118.417 4.92884H118.003L117.824 4.58188C117.786 4.51071 117.749 4.46622 117.711 4.43953C117.674 4.41285 117.627 4.40395 117.561 4.40395H117.448"/>
</mask>
<path d="M117.796 3.83457L118.568 3.0179L118.511 2.96353L118.446 2.91775L117.796 3.83457ZM117.457 3.79009V2.66609H116.333V3.79009H117.457ZM117.457 4.14595H116.333V5.26995H117.457V4.14595ZM117.457 4.92884V6.05285H118.581V4.92884H117.457ZM117.071 4.92884H115.947V6.05285H117.071V4.92884ZM117.071 3.52319V2.39919H115.947V3.52319H117.071ZM117.946 4.2705L117.64 3.18917L117.771 5.3808L117.946 4.2705ZM118.088 4.35057L117.229 5.07652L117.27 5.12427L117.315 5.16724L118.088 4.35057ZM118.21 4.5285L117.193 5.0066L117.202 5.02582L117.211 5.04469L118.21 4.5285ZM118.417 4.92884V6.05285H120.263L119.415 4.41265L118.417 4.92884ZM118.003 4.92884L117.004 5.44361L117.318 6.05285H118.003V4.92884ZM117.824 4.58188L118.823 4.06708L118.818 4.0565L117.824 4.58188ZM117.627 5.28775C117.798 5.28775 118.221 5.26451 118.568 4.93593L117.024 3.30259C117.184 3.15063 117.349 3.09137 117.434 3.06797C117.526 3.04253 117.595 3.03974 117.627 3.03974V5.28775ZM118.568 4.93593C118.798 4.71851 118.976 4.38714 118.976 3.97692H116.728C116.728 3.8592 116.753 3.72921 116.811 3.60082C116.868 3.47454 116.946 3.37584 117.024 3.30259L118.568 4.93593ZM118.976 3.97692C118.976 3.84454 118.959 3.6574 118.873 3.45454C118.785 3.2446 118.658 3.10319 118.568 3.0179L117.024 4.65124C116.971 4.60154 116.873 4.49571 116.803 4.33026C116.736 4.17188 116.728 4.03812 116.728 3.97692H118.976ZM118.446 2.91775C118.171 2.72271 117.869 2.66609 117.627 2.66609V4.91409C117.534 4.91409 117.345 4.89306 117.146 4.75139L118.446 2.91775ZM117.627 2.66609H117.457V4.91409H117.627V2.66609ZM116.333 3.79009V4.14595H118.581V3.79009H116.333ZM117.457 5.26995H117.627V3.02195H117.457V5.26995ZM116.333 4.39505V4.92884H118.581V4.39505H116.333ZM117.457 3.80484H117.071V6.05285H117.457V3.80484ZM118.195 4.92884V3.52319H115.947V4.92884H118.195ZM117.071 4.6472H117.664V2.39919H117.071V4.6472ZM117.664 4.6472C117.718 4.6472 117.723 4.65127 117.697 4.64617C117.671 4.64093 117.583 4.62002 117.476 4.54942L118.717 2.6749C118.336 2.42271 117.914 2.39919 117.664 2.39919V4.6472ZM117.476 4.54942C117.361 4.4732 117.258 4.36038 117.19 4.21921C117.125 4.08544 117.114 3.96978 117.114 3.90574H119.362C119.362 3.47485 119.187 2.98578 118.717 2.6749L117.476 4.54942ZM117.114 3.90574C117.114 3.84725 117.126 3.60693 117.33 3.38219L118.996 4.89191C119.312 4.54262 119.362 4.14217 119.362 3.90574H117.114ZM117.33 3.38219C117.36 3.34904 117.406 3.30607 117.469 3.26631C117.533 3.22642 117.593 3.20253 117.64 3.18917L118.253 5.35183C118.56 5.26474 118.805 5.10185 118.996 4.89191L117.33 3.38219ZM117.771 5.3808C117.674 5.36541 117.57 5.33185 117.469 5.27478C117.369 5.21788 117.289 5.14752 117.229 5.07652L118.946 3.62462C118.738 3.37866 118.45 3.212 118.121 3.1602L117.771 5.3808ZM117.315 5.16724C117.271 5.12509 117.244 5.09037 117.23 5.07052C117.214 5.04826 117.202 5.02723 117.193 5.0066L119.227 4.0504C119.138 3.86061 119.013 3.67846 118.86 3.5339L117.315 5.16724ZM117.211 5.04469L117.418 5.44504L119.415 4.41265L119.208 4.01231L117.211 5.04469ZM118.417 3.80484H118.003V6.05285H118.417V3.80484ZM119.002 4.41407L118.823 4.06711L116.825 5.09665L117.004 5.44361L119.002 4.41407ZM118.818 4.0565C118.731 3.89193 118.591 3.68529 118.361 3.52271L117.061 5.35636C116.907 5.24715 116.842 5.12948 116.83 5.10726L118.818 4.0565ZM118.361 3.52271C118.038 3.29298 117.704 3.27995 117.561 3.27995V5.52795C117.549 5.52795 117.31 5.53271 117.061 5.35636L118.361 3.52271ZM117.561 3.27995H117.448V5.52795H117.561V3.27995Z" fill="white" mask="url(#path-11-inside-1_4439_193)"/>
</svg>
