<svg width="32" height="32" viewBox="0 0 32 32" fill="none" xmlns="http://www.w3.org/2000/svg">
<g opacity="0.8">
<path fill-rule="evenodd" clip-rule="evenodd" d="M12.1669 21.3514C12.1582 22.4479 10.5684 22.4605 9.48518 22.4605C8.40201 22.4605 7.17471 21.7715 7.17907 20.9523C7.18781 20.007 7.03931 19.5532 7.03931 18.6542C7.03931 18.1962 7.06551 17.9483 7.05241 17.4862C7 15.8855 8.41074 16.0326 8.42822 14.6377C8.42822 14.331 8.21857 14.1672 7.96961 13.8437C7.75123 13.5538 7.49354 13.1043 7.41056 12.8438C7.07425 11.7934 7 11.6464 7 10.5331C7 9.65919 7.19218 9.13403 7.19218 8.26016C7.19218 6.93675 6.64622 4.8109 8.34523 5.02936C8.73832 5.07978 8.96543 5.02936 9.35852 5.02936L11.1318 4.5C12.8832 4.61343 12.5687 5.92004 13.2807 6.79391C13.6301 7.23084 14.1673 7.13841 14.5385 7.55854C14.9273 7.99968 15.8008 9.14243 16.504 10.2306C16.8577 10.7725 17.6221 11.8103 17.7575 12.0077C17.8798 12.2052 18.8756 13.6798 19.2949 13.4614C19.5307 13.3395 19.57 12.4194 19.57 11.7808C19.57 11.6422 19.5482 11.2473 19.6137 10.7725C19.5351 10.4658 19.5045 8.7013 19.4565 8.34419C19.4565 7.96607 19.6006 7.67198 19.6006 7.20984C19.6006 6.07969 19.5307 4.73107 21.2472 4.80669C21.6665 4.8235 22.0203 4.84451 22.4396 4.84451C23.6625 4.84451 24.5229 5.49571 24.7719 6.88213C25.1126 8.76852 24.7588 10.6801 24.9335 12.5791C25.1344 14.6965 24.8243 15.1209 24.737 16.9947C24.6845 18.045 24.9073 18.4021 24.9772 19.6121C25.0864 21.6245 24.2871 22.6118 22.5488 22.4899C22.195 22.4647 21.7145 22.3135 21.1686 22.2295C20.0942 22.2673 18.7271 21.885 17.4124 19.5742C16.7092 18.3349 16.1851 17.2509 15.1456 16.2552C14.5778 15.7049 14.4119 15.4234 13.9358 14.81C13.582 14.3604 13.5252 13.5286 12.9312 13.5286C12.4159 13.5286 12.3678 14.1252 12.3678 14.6209C12.3678 14.9822 12.3897 15.541 12.3678 15.8477C12.2979 16.8434 12.132 17.4064 12.2761 18.5785C12.3678 19.3138 11.8568 19.6877 11.8568 20.4271C11.8568 20.6876 12.1713 20.9733 12.1669 21.3472V21.3514Z" fill="white"/>
<path fill-rule="evenodd" clip-rule="evenodd" d="M9.3513 24.661C11.913 24.9225 13.0295 24.9454 15.6712 24.7895C16.9857 24.7115 17.6851 24.3858 18.7721 24.5417C19.7749 24.6839 20.6807 24.8766 21.5023 24.9179C23.5457 24.9179 24.8223 24.895 24.9909 26.0189C25.1004 26.7482 24.1988 27.4547 23.6342 27.4547C20.626 27.4547 20.1836 27.1932 17.9716 27.1427C16.5433 27.1152 15.9956 27.4088 14.7232 27.4593C13.6277 27.5097 12.743 27.5189 11.854 27.4547C11.1967 27.4088 10.4678 27.2391 9.78105 27.2987C8.37804 27.4226 7.13092 27.3584 7.02138 26.6473C6.79386 25.1656 8.43703 24.5784 9.3513 24.6656V24.661Z" fill="white"/>
</g>
</svg>
